<?xml version="1.0" encoding="UTF-8" standalone="no"?>
<!DOCTYPE svg PUBLIC "-//W3C//DTD SVG 1.1//EN" "http://www.w3.org/Graphics/SVG/1.1/DTD/svg11.dtd">
<svg xmlns="http://www.w3.org/2000/svg" version="1.1" viewBox="0.00 0.00 400.00 231.00">
<circle fill="#d6bfd1" cx="273.19" cy="55.92" r="5.28"/>
<path fill="#d6bfd1" d="
  M 249.84 56.87
  C 251.57 51.15 258.54 49.20 261.43 55.26
  C 263.81 60.27 258.30 65.50 253.40 63.07
  C 251.28 62.03 248.78 60.41 246.47 61.97
  C 245.20 62.83 244.74 64.60 244.15 65.95
  C 242.32 70.16 236.86 70.56 234.05 67.13
  C 229.97 62.15 235.57 55.22 241.37 58.15
  C 244.29 59.63 248.37 61.70 249.84 56.87
  Z"
/>
<path fill="#bf9db7" d="
  M 297.92 67.84
  Q 297.55 66.73 296.99 65.75
  C 295.53 63.21 296.66 59.87 298.65 58.11
  C 303.18 54.12 309.42 56.77 310.07 62.67
  C 310.51 66.68 307.14 69.96 303.24 69.91
  Q 301.14 69.88 298.94 68.87
  Q 298.33 68.60 297.74 68.90
  L 294.19 70.76
  Q 293.00 71.38 294.05 70.55
  Q 295.64 69.30 297.53 68.63
  Q 298.11 68.43 297.92 67.84
  Z"
/>
<circle fill="#bf9db7" cx="200.28" cy="65.47" r="6.93"/>
<circle fill="#d6bfd1" cx="221.55" cy="75.01" r="7.59"/>
<path fill="#bf9db7" d="
  M 244.06 79.36
  C 246.79 73.58 253.72 71.65 259.28 75.15
  C 265.51 79.06 271.76 81.50 277.53 75.10
  Q 279.46 72.96 282.14 72.62
  Q 290.40 71.58 291.83 79.74
  Q 292.22 81.96 291.14 84.11
  Q 288.37 89.62 282.35 89.02
  C 279.40 88.72 277.65 86.46 275.46 84.91
  Q 268.15 79.70 263.34 87.70
  C 260.80 91.90 258.01 94.38 252.56 94.02
  C 245.20 93.52 240.92 86.01 244.06 79.36
  Z"
/>
<circle fill="#a37197" cx="307.03" cy="86.55" r="7.64"/>
<circle fill="#bf9db7" cx="180.77" cy="85.58" r="5.25"/>
<path fill="#d6bfd1" d="
  M 200.36 112.00
  Q 201.12 113.71 202.09 115.40
  C 207.62 125.03 195.03 135.15 186.44 128.27
  C 180.14 123.23 181.70 114.28 188.67 110.63
  C 194.02 107.82 198.50 104.11 197.49 97.42
  Q 197.24 95.75 196.84 94.12
  C 195.92 90.38 197.91 86.52 201.23 84.88
  C 209.38 80.84 217.02 90.54 211.41 97.77
  Q 210.13 99.42 208.07 100.12
  C 202.40 102.07 197.42 105.37 200.36 112.00
  Z"
/>
<path fill="#a37197" d="
  M 334.50 102.13
  C 337.21 102.44 340.30 101.41 342.60 103.18
  C 348.19 107.48 343.20 116.27 336.54 113.51
  C 332.98 112.04 333.08 108.57 332.84 105.30
  C 332.62 102.41 329.94 101.05 327.27 101.63
  Q 325.16 102.09 323.36 101.40
  C 316.36 98.74 319.18 88.81 326.26 89.78
  C 334.47 90.91 329.03 101.51 334.50 102.13
  Z"
/>
<path fill="#d6bfd1" d="
  M 167.17 113.11
  C 172.17 110.68 170.96 107.97 168.35 104.35
  C 165.92 101.00 167.85 96.75 171.44 95.42
  C 177.97 92.99 182.73 102.30 176.12 106.39
  Q 174.59 107.33 173.18 108.44
  C 170.16 110.80 172.71 113.59 174.15 115.77
  C 176.16 118.81 175.05 122.39 172.00 124.21
  C 165.27 128.24 158.69 117.21 167.17 113.11
  Z"
/>
<path fill="#a37197" d="
  M 322.48 116.87
  C 322.41 125.19 323.32 130.99 332.55 133.03
  Q 334.43 133.44 335.80 134.73
  C 343.12 141.59 334.68 152.84 326.06 148.32
  Q 320.79 145.55 322.03 138.71
  C 323.40 131.24 320.96 127.15 312.99 127.39
  C 308.64 127.52 304.81 125.66 302.79 121.69
  C 298.41 113.10 306.62 104.22 315.42 107.08
  C 319.66 108.46 322.52 112.37 322.48 116.87
  Z"
/>
<circle fill="#a37197" cx="348.93" cy="122.10" r="5.29"/>
<circle fill="#d6bfd1" cx="169.83" cy="139.75" r="7.86"/>
<path fill="#ffffff" d="
  M 216.53 183.90
  C 226.12 184.52 235.17 180.50 237.92 170.64
  A 0.96 0.96 0.0 0 1 239.01 169.95
  L 251.26 172.16
  Q 251.86 172.27 251.73 172.86
  C 247.34 192.48 226.29 198.08 208.90 194.93
  C 194.36 192.30 183.85 182.93 182.84 167.70
  C 181.33 144.89 200.23 132.99 221.21 135.51
  C 232.99 136.93 243.52 143.42 246.52 155.05
  A 0.78 0.77 76.1 0 1 245.95 156.00
  L 233.98 158.84
  A 0.76 0.75 73.5 0 1 233.10 158.36
  Q 229.73 148.90 220.25 147.34
  C 209.29 145.54 199.33 150.73 197.85 162.50
  C 196.26 175.25 204.39 183.12 216.53 183.90
  Z"
/>
<path fill="#ffffff" d="
  M 67.43 183.56
  C 76.29 184.69 85.54 181.09 85.66 170.74
  Q 85.82 157.60 85.72 137.75
  A 0.63 0.63 0.0 0 1 86.35 137.12
  L 100.02 137.07
  Q 100.64 137.07 100.64 137.69
  Q 100.76 154.05 100.55 170.41
  C 100.36 185.24 90.70 193.57 76.61 195.36
  C 59.29 197.56 40.52 190.75 40.43 170.31
  Q 40.35 152.21 40.42 137.72
  A 0.60 0.59 -89.5 0 1 41.01 137.13
  L 54.99 137.05
  A 0.24 0.24 0.0 0 1 55.23 137.29
  Q 55.21 152.14 55.31 169.66
  C 55.35 177.17 59.90 182.59 67.43 183.56
  Z"
/>
<path fill="#a37197" d="
  M 349.34 149.47
  A 1.81 1.81 0.0 0 1 347.54 147.65
  L 347.55 146.58
  A 6.84 6.71 -89.7 0 1 354.30 139.78
  L 354.68 139.78
  A 6.84 6.71 -89.7 0 1 361.35 146.66
  L 361.34 147.73
  A 1.81 1.81 0.0 0 1 359.52 149.53
  L 349.34 149.47
  Z"
/>
<path fill="#d6bfd1" d="
  M 142.18 149.44
  A 0.12 0.12 0.0 0 1 142.06 149.32
  L 142.06 149.29
  A 6.63 6.27 -0.6 0 1 148.63 142.95
  L 148.83 142.95
  A 6.63 6.27 -0.6 0 1 155.52 149.15
  L 155.52 149.18
  A 0.12 0.12 0.0 0 1 155.40 149.30
  L 142.18 149.44
  Z"
/>
<path fill="#ffffff" d="
  M 120.34 161.01
  A 0.36 0.35 56.2 0 0 120.99 161.14
  Q 124.74 155.18 131.12 153.09
  C 143.20 149.13 156.56 153.57 156.59 168.04
  Q 156.61 179.64 156.47 192.85
  Q 156.46 193.55 155.77 193.55
  L 143.97 193.65
  Q 143.20 193.66 143.21 192.89
  Q 143.35 181.32 143.25 170.62
  Q 143.19 164.21 137.81 162.07
  C 132.87 160.11 124.68 161.67 122.11 167.13
  Q 120.88 169.74 120.84 173.46
  Q 120.71 183.76 120.84 192.78
  A 0.82 0.82 0.0 0 1 120.02 193.61
  L 107.93 193.62
  A 0.56 0.55 90.0 0 1 107.38 193.06
  L 107.47 153.78
  Q 107.47 153.04 108.22 153.04
  L 117.71 153.01
  A 1.45 1.45 0.0 0 1 119.14 154.21
  L 120.34 161.01
  Z"
/>
<path fill="#ffffff" d="
  M 309.72 175.69
  C 307.91 197.24 275.56 200.44 262.34 188.99
  C 253.86 181.66 252.96 169.32 259.68 160.70
  C 266.86 151.49 281.24 150.30 291.95 152.67
  C 303.18 155.16 310.73 163.63 309.72 175.69
  Z
  M 296.6998 173.3960
  A 14.14 12.49 -0.3 0 0 282.4946 160.9802
  A 14.14 12.49 -0.3 0 0 268.4202 173.5440
  A 14.14 12.49 -0.3 0 0 282.6254 185.9598
  A 14.14 12.49 -0.3 0 0 296.6998 173.3960
  Z"
/>
<path fill="#ffffff" d="
  M 328.58 160.81
  Q 331.76 156.41 335.04 154.67
  Q 344.75 149.52 354.96 153.19
  Q 360.22 155.08 362.80 160.56
  Q 364.44 164.04 364.36 170.67
  Q 364.20 182.45 364.29 193.16
  A 0.81 0.81 0.0 0 1 363.48 193.98
  L 351.30 193.98
  A 0.44 0.44 0.0 0 1 350.86 193.54
  Q 350.89 181.96 350.82 170.55
  C 350.76 160.74 340.06 159.21 333.37 163.29
  Q 328.29 166.38 328.24 173.39
  Q 328.18 183.72 328.24 193.26
  A 0.70 0.70 0.0 0 1 327.54 193.97
  L 315.47 193.97
  Q 314.98 193.97 314.98 193.47
  L 314.98 153.78
  A 0.75 0.74 90.0 0 1 315.72 153.03
  L 325.68 152.98
  A 1.13 1.12 85.5 0 1 326.79 153.93
  L 327.86 160.64
  Q 328.01 161.61 328.58 160.81
  Z"
/>
<rect fill="#ffffff" x="-6.66" y="-20.46" transform="translate(169.77,173.47) rotate(-0.3)" width="13.32" height="40.92" rx="0.89"/>
</svg>
